<!-- Generated by IcoMoon.io -->
<svg version="1.1" xmlns="http://www.w3.org/2000/svg" width="24" height="24" viewBox="0 0 24 24">
<path d="M3.6 6.001c0-0.318 0.126-0.623 0.351-0.849s0.53-0.351 0.849-0.351h14.4c0.318 0 0.624 0.126 0.849 0.351s0.351 0.53 0.351 0.849-0.126 0.623-0.351 0.849c-0.225 0.225-0.53 0.351-0.849 0.351h-14.4c-0.318 0-0.623-0.126-0.849-0.351s-0.351-0.53-0.351-0.849z"></path>
<path d="M3.6 12.001c0-0.318 0.126-0.624 0.351-0.849s0.53-0.351 0.849-0.351h14.4c0.318 0 0.624 0.126 0.849 0.351s0.351 0.53 0.351 0.849c0 0.318-0.126 0.624-0.351 0.849s-0.53 0.351-0.849 0.351h-14.4c-0.318 0-0.623-0.126-0.849-0.351s-0.351-0.53-0.351-0.849z"></path>
<path d="M3.6 18.001c0-0.318 0.126-0.624 0.351-0.849s0.53-0.351 0.849-0.351h14.4c0.318 0 0.624 0.126 0.849 0.351s0.351 0.53 0.351 0.849c0 0.318-0.126 0.624-0.351 0.849s-0.53 0.351-0.849 0.351h-14.4c-0.318 0-0.623-0.126-0.849-0.351s-0.351-0.53-0.351-0.849z"></path>
</svg>
